Men.in.Black.2.2002.720p.HD-DvDRip.x264.aac.mp4.anoXmous

Format                           : MPEG-4
Format profile                   : Base Media
Codec ID                         : isom
File size                        : 700 MiB
Duration                         : 1h 24mn
Overall bit rate mode            : Variable
Overall bit rate                 : 1 159 Kbps

Video
ID                               : 1
Format                           : AVC
Format/Info                      : Advanced Video Codec
Format profile                   : High@L4.1
Format settings, CABAC           : Yes
Format settings, ReFrames        : 4 frames
Codec ID                         : avc1
Codec ID/Info                    : Advanced Video Coding
Duration                         : 1h 24mn
Bit rate                         : 1 090 Kbps
Maximum bit rate                 : 9 138 Kbps
Width                            : 1 280 pixels
Height                           : 720 pixels
Display aspect ratio             : 16:9
Frame rate mode                  : Constant
Frame rate                       : 23.976 fps
Color space                      : YUV
Chroma subsampling               : 4:2:0
Bit depth                        : 8 bits
Scan type                        : Progressive
Bits/(Pixel*Frame)               : 0.049
Stream size                      : 657 MiB (94%)
Writing library                  : x264 core 120 r2120 0c7dab9

Audio
ID                               : 2
Format                           : AAC
Format/Info                      : Advanced Audio Codec
Format profile                   : LC
Codec ID                         : 40
Duration                         : 1h 24mn
Bit rate mode                    : Variable
Bit rate                         : 66.2 Kbps
Maximum bit rate                 : 79.0 Kbps
Channel(s)                       : 2 channels
Channel positions                : Front: L R
Sampling rate                    : 48.0 KHz
Compression mode                 : Lossy
Stream size                      : 39.8 MiB (6%)
Language                         : English

                              SUB:
Men.in.Black.2.2002.720p.HD-DvDRip.x264.aac.mp4.anoXmous_swe.srt

          http://www.imdb.com/title/tt0120912/

+++++++++ This work very fine with PSP and XBOX :) +++++++++++